<svg width="95" height="95" viewBox="0 0 95 95" fill="none" xmlns="http://www.w3.org/2000/svg">
<path d="M81.0877 13.9123C72.1161 4.94074 60.1877 0 47.5 0C34.8123 0 22.8839 4.94074 13.9123 13.9123C4.94074 22.8839 0 34.8123 0 47.5C0 60.1877 4.94093 72.1159 13.9123 81.0877C22.8837 90.0594 34.8123 95 47.5 95C60.1877 95 72.1161 90.0593 81.0877 81.0877C90.0593 72.1161 95 60.1877 95 47.5C95 34.8123 90.0591 22.8841 81.0877 13.9123ZM47.5 44.5312C54.8664 44.5312 60.8594 50.5242 60.8594 57.8906C60.8594 63.9908 56.7482 69.1457 51.1519 70.7384C50.7499 70.8529 50.4688 71.2146 50.4688 71.6326V74.1349C50.4688 75.7336 49.2402 77.109 47.6434 77.1842C45.9384 77.2643 44.5312 75.9059 44.5312 74.2188V71.632C44.5312 71.2151 44.2518 70.8533 43.8508 70.7392C38.2785 69.1546 34.1779 64.0385 34.1408 57.9736C34.131 56.3547 35.4038 54.9696 37.0222 54.9232C38.7016 54.8749 40.0781 56.222 40.0781 57.8906C40.0781 62.1586 43.6994 65.5968 48.0305 65.2939C51.6865 65.0384 54.648 62.0767 54.9033 58.4207C55.2058 54.0895 51.7678 50.4688 47.5 50.4688C40.1336 50.4688 34.1406 44.4758 34.1406 37.1094C34.1406 31.0092 38.2518 25.8543 43.8481 24.2616C44.2501 24.1471 44.5312 23.7854 44.5312 23.3674V20.8651C44.5312 19.2664 45.7598 17.891 47.3566 17.8158C49.0616 17.7357 50.4688 19.0941 50.4688 20.7812V23.368C50.4688 23.7849 50.7482 24.1467 51.1491 24.2608C56.7215 25.8454 60.8221 30.9615 60.8592 37.0264C60.869 38.6453 59.5962 40.0304 57.9778 40.0768C56.2984 40.1251 54.9219 38.778 54.9219 37.1094C54.9219 32.8414 51.3006 29.4032 46.9695 29.7061C43.3135 29.9616 40.352 32.9233 40.0967 36.5793C39.7942 40.9105 43.2322 44.5312 47.5 44.5312Z" fill="#3E9FE3"/>
</svg>
