<svg width="20" height="20" viewBox="0 0 20 20" fill="none" xmlns="http://www.w3.org/2000/svg">
<path d="M10 0C4.47715 0 0 4.47715 0 10C0 15.5228 4.47715 20 10 20C15.5228 20 20 15.5228 20 10C19.9936 4.47982 15.5202 0.00642897 10 0Z" fill="white"/>
<path d="M15.7725 6.83333L10.0683 14.5742C9.93229 14.7547 9.72944 14.8729 9.50535 14.9024C9.28126 14.9318 9.05473 14.87 8.87667 14.7308L4.80333 11.4742C4.44389 11.1865 4.38569 10.6619 4.67333 10.3025C4.96098 9.94305 5.48555 9.88485 5.845 10.1725L9.24167 12.89L14.4308 5.84749C14.601 5.59215 14.8977 5.45098 15.2032 5.48003C15.5086 5.50907 15.7734 5.70364 15.8924 5.98647C16.0114 6.26931 15.9653 6.59465 15.7725 6.83333Z" fill="#3E9FE3"/>
</svg>
