<svg width="716" height="841" viewBox="0 0 716 841" fill="none" xmlns="http://www.w3.org/2000/svg">
<path d="M695.348 -71.1763C594.467 -114.14 482.893 -115.246 381.18 -74.2928C279.466 -33.3395 199.788 44.7715 156.824 145.652C113.86 246.533 112.754 358.107 153.707 459.82C194.66 561.534 272.772 641.21 373.652 684.176C474.532 727.142 586.107 728.246 687.82 687.293C789.534 646.34 869.212 568.229 912.176 467.348C955.14 366.467 956.246 254.893 915.293 153.18C874.34 51.4665 796.228 -28.2103 695.348 -71.1763ZM524.917 282.701C583.972 258.923 651.36 287.623 675.137 346.677C694.827 395.581 678.508 450.176 638.785 481.008C635.932 483.223 634.845 487.03 636.195 490.381L644.271 510.441C649.432 523.257 644.023 538.249 631.464 544.006C618.054 550.152 602.389 543.804 596.943 530.279L588.594 509.542C587.248 506.199 583.84 504.201 580.257 504.58C530.471 509.864 481.084 482.085 461.21 433.584C455.906 420.638 461.639 405.425 474.463 399.83C487.77 394.022 503.154 400.378 508.54 413.755C522.316 447.97 562.445 463.844 596.188 447.436C624.672 433.587 638.854 400.285 629.1 370.152C617.544 334.454 578.296 316.524 544.082 330.3C485.028 354.077 417.64 325.377 393.863 266.323C374.173 217.419 390.492 162.824 430.215 131.992C433.068 129.777 434.155 125.97 432.805 122.619L424.729 102.559C419.568 89.7429 424.977 74.7509 437.536 68.9943C450.945 62.8483 466.611 69.196 472.057 82.7216L480.406 103.458C481.752 106.801 485.16 108.799 488.743 108.42C538.529 103.137 587.916 130.915 607.79 179.416C613.094 192.362 607.361 207.575 594.537 213.17C581.23 218.978 565.846 212.622 560.46 199.245C546.684 165.031 506.555 149.157 472.812 165.564C444.328 179.413 430.146 212.715 439.9 242.848C451.456 278.547 490.704 296.476 524.917 282.701Z" fill="#3E9FE3"/>
</svg>
